<svg width="100" height="100" viewBox="0 0 100 100" fill="none" xmlns="http://www.w3.org/2000/svg">
<rect x="45" y="31" width="10" height="37" rx="5" fill="#07137B" stroke="#07137B" stroke-width="2"/>
<path d="M34 63C31.2386 63 29 60.7614 29 58C29 55.2386 31.2386 53 34 53L66 53C68.7614 53 71 55.2386 71 58C71 60.7614 68.7614 63 66 63L34 63Z" stroke="#07137B" stroke-width="2"/>
<path d="M65.8286 47.3428C68.6847 47.3428 71 45.0274 71 42.1714C71 39.3153 68.6847 36.9999 65.8286 36.9999L34.3378 36.9999C31.4817 36.9999 29.1664 39.3152 29.1664 42.1713C29.1664 45.0274 31.4817 47.3428 34.3378 47.3428L65.8286 47.3428Z" stroke="#07137B" stroke-width="2"/>
</svg>
