<svg width="100" height="100" viewBox="0 0 100 100" fill="none" xmlns="http://www.w3.org/2000/svg">
<rect x="62.0322" y="28" width="10.34" height="24.8228" rx="5.17" transform="rotate(89.6146 62.0322 28)" fill="#07137B" stroke="#07137B" stroke-width="2"/>
<rect x="31.0059" y="71.6455" width="10.3428" height="39.3028" rx="5.17142" transform="rotate(-90 31.0059 71.6455)" stroke="#07137B" stroke-width="2"/>
<path d="M70.3086 66.4741C70.3086 69.3302 67.9933 71.6455 65.1372 71.6455C62.2811 71.6455 59.9658 69.3302 59.9658 66.4741L59.9658 44.6513C59.9658 41.7952 62.2811 39.4798 65.1372 39.4798C67.9933 39.4798 70.3086 41.7952 70.3086 44.6513L70.3086 66.4741Z" stroke="#07137B" stroke-width="2"/>
<rect width="10.3428" height="39.3028" rx="5.17142" transform="matrix(-4.37114e-08 1 1 4.37114e-08 31.0059 39.4795)" stroke="#07137B" stroke-width="2"/>
<path d="M40.3428 44.6509C40.3428 41.7948 38.0274 39.4795 35.1714 39.4795C32.3153 39.4795 29.9999 41.7948 29.9999 44.6509L29.9999 66.4737C29.9999 69.3298 32.3153 71.6452 35.1713 71.6452C38.0274 71.6452 40.3428 69.3298 40.3428 66.4737L40.3428 44.6509Z" stroke="#07137B" stroke-width="2"/>
</svg>
